<?xml version="1.0" encoding="UTF-8" standalone="no"?>
<!-- Created with Inkscape (http://www.inkscape.org/) -->

<svg
   xmlns:dc="http://purl.org/dc/elements/1.1/"
   xmlns:cc="http://creativecommons.org/ns#"
   xmlns:rdf="http://www.w3.org/1999/02/22-rdf-syntax-ns#"
   xmlns:svg="http://www.w3.org/2000/svg"
   xmlns="http://www.w3.org/2000/svg"
   xmlns:sodipodi="http://sodipodi.sourceforge.net/DTD/sodipodi-0.dtd"
   xmlns:inkscape="http://www.inkscape.org/namespaces/inkscape"
   width="64"
   height="64"
   viewBox="0 0 16.933333 16.933334"
   version="1.1"
   id="svg189"
   inkscape:version="0.92.4 (5da689c313, 2019-01-14)"
   sodipodi:docname="icon.svg">
  <defs
     id="defs183">
    <radialGradient
       id="radialGradient152"
       spreadMethod="pad"
       gradientTransform="matrix(-3.6654309,2.8999608,-2.9300724,-3.7862254,49.130353,149.4443)"
       gradientUnits="userSpaceOnUse"
       r="1"
       cy="0"
       cx="0"
       fy="0"
       fx="0">
      <stop
         id="stop144"
         offset="0"
         style="stop-opacity:1;stop-color:#ffffff" />
      <stop
         id="stop146"
         offset="0.62210876"
         style="stop-opacity:1;stop-color:#ffffff" />
      <stop
         id="stop148"
         offset="0.778524"
         style="stop-opacity:1;stop-color:#bdbcbc" />
      <stop
         id="stop150"
         offset="1"
         style="stop-opacity:1;stop-color:#231f20" />
    </radialGradient>
  </defs>
  <sodipodi:namedview
     id="base"
     pagecolor="#ffffff"
     bordercolor="#666666"
     borderopacity="1.0"
     inkscape:pageopacity="0.0"
     inkscape:pageshadow="2"
     inkscape:zoom="11.2"
     inkscape:cx="55.73645"
     inkscape:cy="30.77626"
     inkscape:document-units="px"
     inkscape:current-layer="layer1"
     showgrid="false"
     units="px"
     inkscape:window-width="1920"
     inkscape:window-height="1000"
     inkscape:window-x="-11"
     inkscape:window-y="-11"
     inkscape:window-maximized="1" />
  <metadata
     id="metadata186">
    <rdf:RDF>
      <cc:Work
         rdf:about="">
        <dc:format>image/svg+xml</dc:format>
        <dc:type
           rdf:resource="http://purl.org/dc/dcmitype/StillImage" />
        <dc:title></dc:title>
      </cc:Work>
    </rdf:RDF>
  </metadata>
  <g
     inkscape:label="Capa 1"
     inkscape:groupmode="layer"
     id="layer1"
     transform="translate(0,-280.06665)">
    <g
       id="g1081"
       transform="matrix(3.3992997,0,0,3.3992997,-155.60889,-222.49904)">
      <path
         inkscape:connector-curvature="0"
         id="path154"
         style="fill:url(#radialGradient152);stroke:none;stroke-width:0.32678863"
         d="m 48.284104,148.02015 c -0.161434,6.5e-4 -0.324501,0.017 -0.488222,0.051 v 0 c -1.281992,0.266 -2.102885,1.498 -1.82969,2.74666 v 0 c 0.236922,1.08428 1.22219,1.83001 2.316932,1.83328 v 0 h 0.0147 c 0.161107,-6.5e-4 0.324501,-0.017 0.488222,-0.0506 v 0 c 1.281665,-0.26634 2.102558,-1.49833 1.82969,-2.74731 v 0 c -0.237249,-1.08396 -1.222516,-1.82937 -2.316932,-1.83296 v 0 z" />
      <path
         d="m 48.92474,151.35816 c -0.06274,-0.0487 -0.183982,-0.0706 -0.300972,0.0284 l -0.01111,0.01 c -0.163721,0.14641 -0.43757,0.39117 -0.656192,0.3415 -0.16274,-0.0373 -0.182675,-0.18039 -0.172544,-0.32222 0.002,-0.0369 0.0062,-0.0738 0.01176,-0.10849 l 3.27e-4,-0.003 -3.27e-4,0.002 c 0.0046,-0.0281 0.0095,-0.0549 0.01405,-0.0791 0.02124,-0.10391 0.194439,-0.84736 0.284306,-1.22937 0.0134,-0.0552 0.02614,-0.12516 0.01863,-0.1781 -0.01144,-0.0814 -0.07778,-0.10948 -0.168623,-0.13203 -0.108167,-0.0229 -0.252607,0.0186 -0.291822,0.13889 -0.04314,0.13986 -0.09117,0.33169 -0.208818,0.90749 -0.0069,0.0271 -0.0134,0.0588 -0.0232,0.0882 l 0.0016,-0.004 c -0.01993,0.0614 -0.04019,0.12319 -0.12516,0.10686 -0.07778,-0.0216 -0.08268,-0.10752 -0.08594,-0.16994 l -9.81e-4,-0.0131 -0.0056,-0.14346 c -0.01111,-0.21666 -0.01078,-0.44508 6.53e-4,-0.69867 l 0.0085,-0.14902 0.01144,-0.24476 c 0.0029,-0.068 -0.0049,-0.10294 -0.04052,-0.13235 -0.03399,-0.0278 -0.08889,-0.034 -0.155878,-0.0225 -0.05359,0.01 -0.106207,0.0317 -0.143134,0.0719 -0.03366,0.0399 -0.04771,0.0902 -0.05261,0.14085 -0.01209,0.12483 -0.02091,0.24999 -0.02712,0.37515 -0.01176,0.25065 -0.01274,0.50162 -0.0033,0.7526 6.53e-4,0.0183 0.0013,0.035 0.0013,0.0506 v -0.003 0.005 3.3e-4 c 0.0016,0.12614 -0.01699,0.16895 -0.08758,0.17254 -0.07778,0.002 -0.100324,-0.0667 -0.114376,-0.12222 l -0.0091,-0.0369 c -0.03039,-0.14673 -0.05621,-0.29444 -0.07778,-0.43888 l -0.01471,-0.0873 c -0.02549,-0.14935 -0.04216,-0.24804 -0.05784,-0.38039 -0.0036,-0.0258 -0.01144,-0.0732 -0.04738,-0.0889 -0.01797,-0.008 -0.05098,-0.0154 -0.106533,0.014 -0.140192,0.0768 -0.127774,0.22483 -0.127774,0.22483 0.0029,0.11307 0.01242,0.24738 0.02549,0.35947 0.03104,0.2611 0.06372,0.43103 0.110128,0.64018 0.0013,0.007 0.0026,0.0131 0.0039,0.0199 0.01111,0.0608 0.0088,0.10425 -0.01797,0.12385 -0.01569,0.0111 -0.03823,0.0134 -0.06111,0.006 -0.0451,-0.015 -0.0866,-0.0928 -0.103919,-0.13137 l -0.0039,-0.008 c -0.06765,-0.15653 -0.121239,-0.33136 -0.170584,-0.50423 l -0.0036,-0.0121 c 0,0 -0.01013,-0.034 -0.03856,-0.0392 -0.02614,-0.005 -0.05359,-0.001 -0.09673,0.0477 -0.06046,0.0735 -0.01176,0.25261 0.0085,0.35392 0.104573,0.51959 0.531685,1.33166 1.320226,1.63884 0.608154,0.23692 0.985595,-0.0644 1.750934,-0.71828 0.06176,-0.0529 0.133003,-0.13987 0.15163,-0.22287 0.0078,-0.0402 0.002,-0.0709 -0.03039,-0.11503 -0.02582,-0.035 -0.05425,-0.0598 -0.07974,-0.0814"
         style="fill:#ed1c24;fill-opacity:1;fill-rule:nonzero;stroke:none;stroke-width:0.32678863"
         id="path166"
         inkscape:connector-curvature="0" />
      <path
         d="m 50.658812,149.50658 c -0.234634,-0.67874 -0.63397,-0.98102 -0.701615,-1.03265 -0.02418,-0.0183 -0.153918,-0.11961 -0.229406,-0.13758 -0.02516,-0.006 -0.03758,-0.009 -0.06405,-0.01 h -0.0062 c -0.01013,3.2e-4 -0.0219,0.001 -0.03105,0.006 -0.01144,0.006 -0.01307,0.0163 -0.01242,0.0278 0.0013,0.0261 0.0366,0.069 0.08921,0.11862 0.110781,0.1049 0.274502,0.2781 0.33071,0.35522 0.03431,0.0464 0.05163,0.10621 -0.0026,0.1379 -0.01176,0.006 -0.03464,0.0147 -0.06928,-0.003 -0.01765,-0.009 -0.0402,-0.0252 -0.06993,-0.0536 -0.166662,-0.15816 -0.553907,-0.48299 -0.790829,-0.63691 -0.108167,-0.0699 -0.199341,-0.0787 -0.287574,-0.0611 0,0 -0.05457,0.0127 -0.07091,0.051 -0.01634,0.0382 0.02647,0.0788 0.02647,0.0788 0.103919,0.0902 0.612729,0.52515 0.699655,0.6209 0.08202,0.0905 0.08333,0.13986 0.05163,0.17156 -0.04608,0.0457 -0.118624,0.003 -0.138558,-0.009 l 0.0052,0.003 c -0.01732,-0.0101 -0.03693,-0.0239 -0.05947,-0.0418 -0.248033,-0.19607 -0.801939,-0.54279 -0.931348,-0.60586 -0.141826,-0.069 -0.193132,-0.0915 -0.319926,-0.0248 0,0 -0.08235,0.0415 -0.08823,0.10556 -0.0046,0.049 0.02157,0.0853 0.07026,0.11731 0.537894,0.3549 0.653904,0.41404 1.08069,0.72874 0.03301,0.0242 0.108494,0.0922 0.04019,0.15849 -0.02092,0.0206 -0.05817,0.0206 -0.08562,0.0147 -0.0464,-0.0121 -0.08725,-0.0324 -0.128101,-0.0562 -0.233981,-0.13627 -0.641159,-0.34149 -0.856186,-0.42188 -0.148689,-0.0552 -0.24019,0.001 -0.296724,0.0738 -0.04281,0.0585 -0.05425,0.12778 -0.04346,0.17255 0.01372,0.0556 0.07091,0.0905 0.109147,0.11274 0.302607,0.17124 0.53626,0.27189 0.833638,0.45097 0.09412,0.0559 0.109801,0.0634 0.201629,0.12287 0.104899,0.0686 0.266006,0.1683 0.30522,0.29574 0.0091,0.0225 0.01438,0.0611 0.01405,0.0846 -6.53e-4,0.0588 -0.01765,0.11666 -0.1,0.17124 -0.145421,0.0964 -0.404238,0.068 -0.631029,0.0533 -0.04804,-0.003 -0.130389,-0.008 -0.179734,-0.009 -0.118624,-6.5e-4 -0.182021,0.0284 -0.217641,0.0823 -0.03235,0.0484 -0.03529,0.13301 -0.03529,0.17483 0,0.004 0.0013,0.0235 0.0039,0.0422 0.0036,0.0265 0.01275,0.0425 0.02092,0.0536 0.05327,0.0663 0.158492,0.0873 0.27679,0.10065 0.211432,0.0118 0.433975,0.0157 0.691485,0.0206 0.602925,0.0118 1.286893,-0.0245 1.55486,-0.38136 0.193459,-0.25751 0.180387,-0.82743 0.0415,-1.22219"
         style="fill:#ed1c24;fill-opacity:1;fill-rule:nonzero;stroke:none;stroke-width:0.32678863"
         id="path170"
         inkscape:connector-curvature="0" />
    </g>
  </g>
</svg>
